# xmcd
#
# Track frame offsets:
#	150
#	17454
#	34530
#	55593
#	76296
#	108840
#	132305
#	155299
#	189660
#	207979
#	233344
#	256509
#	275317
#	301971
#	323630
# Disc length: 4511 seconds
# Revision: 1
# Processed by: cddbd v1.5.2PL0 Copyright (c) Steve Scherf et al.
#
# Submitted via: libkcddb 0.21
#
DISCID=aa119d0f
DTITLE=Super Mario - Salsa For Fun Hits Vol 15
DYEAR=2006
DGENRE=Salsa
TTITLE0=Playa No More
TTITLE1=Francisco Guayabel
TTITLE2=Bajo Con Tumbao
TTITLE3=S.E.R.A.
TTITLE4=Juanito Alimana
TTITLE5=Maestro de Rumbero
TTITLE6=Montuno Street
TTITLE7=El Quinto de Beethoven
TTITLE8=Japan Mambo
TTITLE9=Chupa El Piruli
TTITLE10=Conco Noches
TTITLE11=Azuquita Pal Café
TTITLE12=Tito On Timbales
TTITLE13=Volver E Verte (Cha Cha)
TTITLE14=Tu Loco (with Counts)
EXTD=YEAR: 2006
EXTT0=
EXTT1=
EXTT2=
EXTT3=
EXTT4=
EXTT5=
EXTT6=
EXTT7=
EXTT8=
EXTT9=
EXTT10=
EXTT11=
EXTT12=
EXTT13=
EXTT14=
PLAYORDER=
